<svg xmlns="http://www.w3.org/2000/svg" width="1129" height="720" viewBox="0 0 1129 720">
  <title>LaTeX Browser Compilation</title>

  <!-- Browser Window -->
  <g id="browserWindow" transform="translate(150, 100)">
    <!-- Browser frame -->
    <rect x="0" y="0" width="800" height="500" rx="12" fill="#4a5568" stroke="#2d3748" stroke-width="2" />
    <rect x="5" y="5" width="790" height="490" rx="8" fill="#ffffff" />

    <!-- Browser header -->
    <rect x="5" y="5" width="790" height="40" rx="8" fill="#f7fafc" />
    <circle cx="25" cy="25" r="6" fill="#ff5f56" />
    <circle cx="45" cy="25" r="6" fill="#ffbd2e" />
    <circle cx="65" cy="25" r="6" fill="#27ca3f" />

    <!-- URL bar -->
    <rect x="100" y="15" width="600" height="20" rx="10" fill="#e2e8f0" />
    <text x="110" y="28" fill="#4a5568" font-size="11" font-family="Arial">texlyre.github.io/texlyre/#yjs:...</text>

    <!-- Editor pane (left side) -->
    <rect x="15" y="55" width="370" height="430" rx="6" fill="#2d3748" stroke="#4a5568" stroke-width="1" />
    <text x="25" y="75" fill="#68d391" font-size="12" font-family="Arial" font-weight="bold">LaTeX Editor</text>

    <!-- LaTeX code lines with equation animation -->
    <g id="latexCode">
      <text x="25" y="100" fill="#fbb6ce" font-size="10" font-family="monospace">\documentclass{article}</text>
      <text x="25" y="120" fill="#90cdf4" font-size="10" font-family="monospace">\usepackage{amsmath}</text>
      <text x="25" y="140" fill="#fbb6ce" font-size="10" font-family="monospace">\begin{document}</text>
      <text x="25" y="160" fill="#faf089" font-size="10" font-family="monospace">\title{My Document}</text>
      <text x="25" y="180" fill="#a78bfa" font-size="10" font-family="monospace">\author{User}</text>
      <text x="25" y="200" fill="#fbb6ce" font-size="10" font-family="monospace">\maketitle</text>
      <text x="25" y="220" fill="#68d391" font-size="10" font-family="monospace">\section{Introduction}</text>
      <text x="25" y="240" fill="#ffffff" font-size="10" font-family="monospace">This is a sample document.</text>
      <text x="25" y="280" fill="#90cdf4" font-size="10" font-family="monospace">\begin{equation}</text>

      <!-- Animated equation in editor -->
      <g id="equationEditor">
        <text x="25" y="300" fill="#faf089" font-size="10" font-family="monospace" opacity="1">E = mc^2
          <animate attributeName="opacity" values="1;1;1;0;0;0" dur="8s" repeatCount="indefinite" />
        </text>
        <text x="25" y="300" fill="#faf089" font-size="10" font-family="monospace" opacity="0">F = ma
          <animate attributeName="opacity" values="0;0;0;1;1;1" dur="8s" repeatCount="indefinite" />
        </text>
      </g>

      <text x="25" y="320" fill="#90cdf4" font-size="10" font-family="monospace">\end{equation}</text>
      <text x="25" y="360" fill="#fbb6ce" font-size="10" font-family="monospace">\end{document}</text>
    </g>

    <!-- Cursor in editor - positioned at end of equation and synced with changes -->
    <line x1="88" y1="292" x2="88" y2="302" stroke="#68d391" stroke-width="2">
      <animate attributeName="opacity" values="1;0;1" dur="1s" repeatCount="indefinite" />
      <!-- Cursor position changes with equation: E=mc^2 (longer) vs F=ma (shorter) -->
      <animateTransform attributeName="transform" attributeType="XML" type="translate" values="0,0; 0,0; 0,0; -25,0; -25,0; -25,0" dur="8s" repeatCount="indefinite" />
    </line>
  </g>

  <!-- PDF Preview pane (right side) -->
  <g id="pdfPreview" transform="translate(555, 155)">
    <rect x="0" y="0" width="370" height="430" rx="6" fill="#f7fafc" stroke="#e2e8f0" stroke-width="1" />
    <text x="10" y="20" fill="#4a5568" font-size="12" font-family="Arial" font-weight="bold">PDF Preview</text>

    <!-- Compile button - smaller with click/completion feedback -->
    <g id="compileButton" transform="translate(345, 10)">
      <circle cx="8" cy="8" r="8" fill="#3182ce" stroke="#2c5aa0" stroke-width="1">
        <!-- Color animation: normal -> pressed (darker) -> processing (orange) -> completed (green) -> back to normal -->
        <animate attributeName="fill" values="#3182ce;#3182ce;#2c5aa0;#f56500;#38a169;#3182ce" dur="8s" repeatCount="indefinite" />
      </circle>
      <!-- Play button icon - smaller -->
      <path d="M5 4 L5 12 L12 8 Z" fill="white" />
      <!-- Button press animation - smaller movement -->
      <animateTransform attributeName="transform" attributeType="XML" type="translate" values="345,10; 345,10; 345,11; 345,10; 345,10; 345,10" dur="8s" repeatCount="indefinite" />
    </g>

    <!-- PDF page -->
    <rect x="20" y="30" width="330" height="380" rx="4" fill="#ffffff" stroke="#cbd5e0" stroke-width="1" />

    <!-- PDF content (animated appearance and equation changes) -->
    <g id="pdfContent" opacity="1">
      <text x="30" y="60" fill="#2d3748" font-size="16" font-family="serif" font-weight="bold">My Document</text>
      <text x="30" y="80" fill="#4a5568" font-size="12" font-family="serif">User</text>
      <text x="30" y="120" fill="#2d3748" font-size="14" font-family="serif" font-weight="bold">1 Introduction</text>
      <text x="30" y="145" fill="#4a5568" font-size="11" font-family="serif">This is a sample document.</text>

      <!-- Mathematical equation that changes -->
      <g transform="translate(150, 180)">
        <!-- Einstein's equation -->
        <g opacity="1">
          <text x="0" y="0" fill="#2d3748" font-size="18" font-family="serif" font-style="italic">E = mc</text>
          <text x="65" y="-8" fill="#2d3748" font-size="12" font-family="serif">2</text>
          <text x="85" y="5" fill="#4a5568" font-size="11" font-family="serif">(1)</text>
          <animate attributeName="opacity" values="1;1;1;0;0;0" dur="8s" repeatCount="indefinite" />
        </g>

        <!-- Newton's equation -->
        <g opacity="0">
          <text x="0" y="0" fill="#2d3748" font-size="18" font-family="serif" font-style="italic">F = ma</text>
          <text x="85" y="5" fill="#4a5568" font-size="11" font-family="serif">(1)</text>
          <animate attributeName="opacity" values="0;0;0;1;1;1" dur="8s" repeatCount="indefinite" />
        </g>
      </g>
    </g>
  </g>

  <!-- Features Panel - centered and with more space -->
  <g id="featuresPanel" transform="translate(220, 560)">
    <!-- Background panel -->
    <rect x="0" y="0" width="670" height="120" rx="8" fill="#f7fafc" stroke="#e2e8f0" stroke-width="1" />

    <!-- Feature 1: No installation -->
    <g transform="translate(50, 30)">
      <circle cx="20" cy="20" r="15" fill="#38a169" />
      <rect x="12" y="14" width="16" height="12" rx="2" fill="#ffffff" />
      <rect x="12" y="14" width="16" height="4" rx="2" fill="#ffffff" />
      <circle cx="15" cy="16" r="1" fill="#38a169" />
      <circle cx="17.5" cy="16" r="1" fill="#38a169" />
      <circle cx="20" cy="16" r="1" fill="#38a169" />
      <rect x="14" y="20" width="12" height="2" fill="#38a169" />
      <rect x="14" y="23" width="8" height="1" fill="#38a169" />
      <text x="20" y="50" text-anchor="middle" fill="#2d3748" font-size="12" font-family="Arial" font-weight="bold">No Installation</text>
      <text x="20" y="65" text-anchor="middle" fill="#718096" font-size="10" font-family="Arial">Works in any browser</text>
    </g>

    <!-- Feature 2: Real-time preview -->
    <g transform="translate(180, 30)">
      <circle cx="20" cy="20" r="15" fill="#3182ce" />
      <circle cx="20" cy="20" r="8" fill="#ffffff">
        <animate attributeName="r" values="6;10;6" dur="2s" repeatCount="indefinite" />
      </circle>
      <text x="20" y="50" text-anchor="middle" fill="#2d3748" font-size="12" font-family="Arial" font-weight="bold">Real-time</text>
      <text x="20" y="65" text-anchor="middle" fill="#718096" font-size="10" font-family="Arial">Instant preview</text>
    </g>

    <!-- Feature 3: WebAssembly powered -->
    <g transform="translate(310, 30)">
      <circle cx="20" cy="20" r="15" fill="#805ad5" />
      <g transform="translate(20, 20)">
        <!-- Simplified gear shape -->
        <circle cx="0" cy="0" r="8" fill="#ffffff" />
        <rect x="-1" y="-10" width="2" height="4" fill="#ffffff" />
        <rect x="-1" y="6" width="2" height="4" fill="#ffffff" />
        <rect x="-10" y="-1" width="4" height="2" fill="#ffffff" />
        <rect x="6" y="-1" width="4" height="2" fill="#ffffff" />
        <!-- Diagonal teeth for more gear-like appearance -->
        <rect x="-7" y="-7" width="3" height="2" fill="#ffffff" transform="rotate(45)" />
        <rect x="4" y="-7" width="3" height="2" fill="#ffffff" transform="rotate(45)" />
        <rect x="-7" y="5" width="3" height="2" fill="#ffffff" transform="rotate(45)" />
        <rect x="4" y="5" width="3" height="2" fill="#ffffff" transform="rotate(45)" />
        <circle cx="0" cy="0" r="3" fill="#805ad5" />
      </g>
      <text x="20" y="50" text-anchor="middle" fill="#2d3748" font-size="12" font-family="Arial" font-weight="bold">WebAssembly</text>
      <text x="20" y="65" text-anchor="middle" fill="#718096" font-size="10" font-family="Arial">Native performance</text>
    </g>

    <!-- Feature 4: Cross-platform -->
    <g transform="translate(440, 30)">
      <circle cx="20" cy="20" r="15" fill="#d69e2e" />
      <circle cx="12" cy="16" r="3" fill="#ffffff" />
      <circle cx="20" cy="16" r="3" fill="#ffffff" />
      <circle cx="28" cy="16" r="3" fill="#ffffff" />
      <rect x="8" y="22" width="24" height="6" rx="1" fill="#ffffff" />
      <text x="20" y="50" text-anchor="middle" fill="#2d3748" font-size="12" font-family="Arial" font-weight="bold">Cross-Platform</text>
      <text x="20" y="65" text-anchor="middle" fill="#718096" font-size="10" font-family="Arial">Any device, any OS</text>
    </g>

    <!-- Feature 5: Fast compilation -->
    <g transform="translate(570, 30)">
      <circle cx="20" cy="20" r="15" fill="#f56500" />
      <path d="M12 24 A 8 8 0 0 1 28 24" fill="none" stroke="#ffffff" stroke-width="2" stroke-linecap="round" />
      <line x1="20" y1="20" x2="25" y2="16" stroke="#ffffff" stroke-width="2" stroke-linecap="round" />
      <circle cx="20" cy="20" r="1.5" fill="#ffffff" />
      <text x="20" y="50" text-anchor="middle" fill="#2d3748" font-size="12" font-family="Arial" font-weight="bold">Fast Compile</text>
      <text x="20" y="65" text-anchor="middle" fill="#718096" font-size="10" font-family="Arial">Optimized engine</text>
    </g>
  </g>
</svg>