<svg xmlns="http://www.w3.org/2000/svg" xmlns:xlink="http://www.w3.org/1999/xlink" viewBox="0 0 480 151">
  <defs>
    <linearGradient id="ngi0-grad" x1="14.9" y1="14.2" x2="214.1" y2="111.8" gradientUnits="userSpaceOnUse" gradientTransform="matrix(4.444,0,0,-4.444,-33,535.8)">
      <stop offset="0" stop-color="#98bf00" stop-opacity="1"/>
      <stop offset="1" stop-color="#98bf00" stop-opacity="0.51"/>
    </linearGradient>
  </defs>
  <g transform="matrix(1.333,0,0,-1.333,-9.9,160.7)">
    <path d="M79.1 30C52.1 30 30 52.1 30 79.1V423.7c0 27 22.1 49.1 49.1 49.1h733.5c27 0 49.1-22.1 49.1-49.1v-81.2c0-9 3.6-17.6 9.9-23.9l40.4-40.4c11.3-11.3 11.3-29.6 0-40.8l-40.3-40.1c-6.4-6.4-10-15-10-24v-94.1c0-27-22.1-49.1-49.1-49.1H79.1zm479.5 74.9c24.8 0 47.4 4.2 67.6 12.5 8.8 3.6 16.9 8 24.5 13 16 10.7 16.9 34.3 1.4 46.5-9.9 7.8-24.1 7.9-34.5 0.7-16.4-11.3-35-16.9-55.8-16.9-18.1 0-34.1 3.8-48.2 11.3-14 7.6-25 18.2-32.8 32-7.8 13.8-11.7 29.5-11.7 47.3 0 17.5 3.9 33.2 11.7 47 7.8 13.8 18.7 24.5 32.6 32.2 13.9 7.7 29.7 11.5 47.6 11.5 10.4 0 20.1-1.2 29.4-3.6 9.8-2.6 17.3-10 20.2-19.3 1-3.3-1.5-6.6-5-6.6-18.8 0-33.9-15.9-32.7-35 1.1-17.4 16.4-30.6 33.8-30.6h32.4c0.3 0 0.6 0 0.9 0 0.3 0 0.5 0 0.9 0h2.2c16 0 28.8 12.9 28.8 28.8v40.2c0 33.1-21.2 62.7-52.8 72.4-0.2 0.1-0.4 0.1-0.6 0.2-20.2 6.2-40.6 9.3-61.1 9.3-29.4 0-55.9-6.3-79.3-18.8-23.5-12.5-41.9-30-55.3-52.2-13.4-22.3-20-47.4-20-75.5 0-28.1 6.7-53.2 20-75.5 13.4-22.3 31.9-39.7 55.7-52.2 23.7-12.5 50.4-18.8 80.1-18.8zM142.1 109.7h6.5c9.7 0 18.9 4.4 25.1 11.9l107.3 131c8 9.8 23.9 4.1 23.9-8.5V142.1c0-17.9 14.5-32.4 32.4-32.4 17.9 0 32.4 14.5 32.4 32.4v218.6c0 17.9-14.5 32.4-32.4 32.4h-6.1c-9.7 0-18.9-4.3-25-11.8L198.3 250.1c-8-9.8-23.9-4.1-23.9 8.5v102c0 17.9-14.5 32.4-32.4 32.4-17.9 0-32.4-14.5-32.4-32.4V142.1c0-17.9 14.5-32.4 32.4-32.4zm607.1 0c18.1 0 32.8 14.7 32.8 32.8v217.7c0 18.1-14.7 32.8-32.8 32.8-18.1 0-32.8-14.7-32.8-32.8V142.5c0-18.1 14.7-32.8 32.8-32.8z" fill="url(#ngi0-grad)" transform="matrix(0.225,0,0,-0.225,7.4,120.6)"/>
    <path d="m254.2 34.8q-2.5 0-4.7 0.8-2.2 0.9-3.8 2.4-1.6 1.6-2.5 3.7-0.9 2.1-0.9 4.6 0 2.5 0.9 4.6 0.9 2.1 2.5 3.6 1.6 1.6 3.8 2.4 2.2 0.9 4.7 0.9 2.7 0 5-1 2.3-0.9 3.8-2.8l-2.7-2.5q-1.2 1.3-2.7 1.9-1.5 0.7-3.2 0.7-1.7 0-3.2-0.6-1.4-0.6-2.5-1.6-1-1-1.7-2.5-0.6-1.4-0.6-3.1 0-1.7 0.6-3.1 0.6-1.4 1.7-2.5 1.1-1 2.5-1.6 1.5-0.6 3.2-0.6 1.7 0 3.2 0.6 1.5 0.7 2.7 2l2.7-2.5q-1.6-1.8-3.8-2.8-2.3-1-5-1z" fill="#6f9aa8"/>
    <path d="m283.1 34.8q-2.6 0-4.8 0.9-2.2 0.9-3.8 2.4-1.6 1.6-2.5 3.6-0.9 2.1-0.9 4.6 0 2.5 0.9 4.5 0.9 2.1 2.5 3.6 1.6 1.6 3.8 2.4 2.2 0.9 4.8 0.9 2.6 0 4.8-0.9 2.2-0.9 3.8-2.4 1.6-1.5 2.5-3.6 0.9-2.1 0.9-4.5 0-2.5-0.9-4.6-0.9-2.1-2.5-3.6-1.6-1.5-3.8-2.4-2.2-0.9-4.7-0.9zm0 3.6q1.7 0 3.1 0.6 1.4 0.6 2.5 1.6 1 1.1 1.6 2.5 0.6 1.4 0.6 3.1 0 1.7-0.6 3.1-0.6 1.4-1.6 2.5-1 1.1-2.5 1.7-1.4 0.6-3.1 0.6-1.7 0-3.1-0.6-1.4-0.6-2.5-1.7-1-1-1.7-2.5-0.6-1.4-0.6-3.1 0-1.7 0.6-3.1 0.6-1.4 1.7-2.5 1-1 2.5-1.6 1.4-0.6 3.1-0.6z" fill="#6f9aa8"/>
    <path d="m304.8 35.1v22.2h9.1q3 0 5-1 2.1-1 3.3-2.7 1.1-1.8 1.1-4.2 0-2.4-1.1-4.2-1.1-1.7-3.3-2.7-2.1-0.9-5-0.9h-6.9l1.8 1.9v-8.4zm14.5 0-5.6 8.1h4.4l5.7-8.1zm-10.4 7.9-1.8 2h6.7q2.7 0 4.1 1.2 1.4 1.2 1.4 3.3 0 2.1-1.4 3.3-1.4 1.1-4.1 1.1h-6.7l1.8 2z" fill="#6f9aa8"/>
    <path d="m341 48.1h11.1v-3.4H341zm0.3-9.5h12.5v-3.5h-16.7v22.2h16.2v-3.5h-12.1z" fill="#6f9aa8"/>
    <path d="m243.2 66.2v2.8l14.4 17.5 0.5-1.6h-14.6v3.5h18.3v-2.8l-14.4-17.5-0.5 1.6h15.3v-3.5z" fill="#6f9aa8"/>
    <path d="m278.5 79.2h11.1v-3.4h-11.1zm0.3-9.5h12.5v-3.5h-16.7v22.2h16.2v-3.5h-12.1z" fill="#6f9aa8"/>
    <path d="m304.8 66.2v22.2h9.1q3 0 5-1 2.1-1 3.3-2.7 1.1-1.8 1.1-4.2 0-2.4-1.1-4.2-1.1-1.7-3.3-2.7-2.1-0.9-5-0.9h-6.9l1.8 1.9v-8.4zm14.5 0-5.6 8.1h4.4l5.7-8.1zm-10.4 7.9-1.8 2h6.7q2.7 0 4.1 1.2 1.4 1.2 1.4 3.3 0 2.1-1.4 3.3-1.4 1.1-4.1 1.1h-6.7l1.8 2z" fill="#6f9aa8"/>
    <path d="m347.2 65.9q-2.6 0-4.8 0.9-2.2 0.9-3.8 2.4-1.6 1.6-2.5 3.6-0.9 2.1-0.9 4.6 0 2.5 0.9 4.5 0.9 2.1 2.5 3.6 1.6 1.6 3.8 2.4 2.2 0.9 4.8 0.9 2.6 0 4.8-0.9 2.2-0.9 3.8-2.4 1.6-1.5 2.5-3.6 0.9-2.1 0.9-4.5 0-2.5-0.9-4.6-0.9-2.1-2.5-3.6-1.6-1.5-3.8-2.4-2.2-0.9-4.7-0.9zm0 3.6q1.7 0 3.1 0.6 1.4 0.6 2.5 1.6 1 1.1 1.6 2.5 0.6 1.4 0.6 3.1 0 1.7-0.6 3.1-0.6 1.4-1.6 2.5-1 1.1-2.5 1.7-1.4 0.6-3.1 0.6-1.7 0-3.1-0.6-1.4-0.6-2.5-1.7-1-1-1.7-2.5-0.6-1.4-0.6-3.1 0-1.7 0.6-3.1 0.6-1.4 1.7-2.5 1-1 2.5-1.6 1.4-0.6 3.1-0.6z" fill="#6f9aa8"/>
    <path d="M133.1 96.9c-6.7 0-12.7-1.4-18-4.2-5.3-2.8-9.5-6.7-12.5-11.7-3-5-4.5-10.7-4.5-17 0-6.3 1.5-12 4.5-17 3-5 7.1-8.9 12.4-11.7 5.3-2.8 11.2-4.2 17.8-4.2 4.6 0 9.2 0.7 13.8 2.1 0 0 0.1 0 0.1 0 7.1 2.2 11.9 8.9 11.9 16.3v9c0 3.6-2.9 6.5-6.5 6.5h-0.5c-0.1 0-0.1 0-0.2 0s-0.1 0-0.2 0h-7.3c-3.9 0-7.4-3-7.6-6.9-0.3-4.3 3.1-7.9 7.4-7.9 0.8 0 1.3-0.8 1.1-1.5-0.7-2.1-2.3-3.8-4.5-4.3-2.1-0.5-4.3-0.8-6.6-0.8-4 0-7.6 0.9-10.7 2.6-3.1 1.7-5.6 4.1-7.3 7.2-1.8 3.1-2.6 6.6-2.6 10.6 0 4 0.9 7.6 2.6 10.7 1.8 3.1 4.2 5.5 7.4 7.2 3.2 1.7 6.8 2.5 10.8 2.5 4.7 0 8.9-1.3 12.5-3.8 2.3-1.6 5.5-1.6 7.8 0.2 3.5 2.7 3.3 8-0.3 10.5-1.7 1.1-3.5 2.1-5.5 2.9-4.6 1.9-9.6 2.8-15.2 2.8zm-93.7-1.1c-4 0-7.3-3.3-7.3-7.3V39.3c0-4 3.3-7.3 7.3-7.3 4 0 7.3 3.3 7.3 7.3v23c0 2.8 3.6 4.1 5.4 1.9l24.2-30.5c1.4-1.7 3.5-2.7 5.6-2.7h1.4c4 0 7.3 3.3 7.3 7.3v49.2c0 4-3.3 7.3-7.3 7.3-4 0-7.3-3.3-7.3-7.3V65.6c0-2.8-3.6-4.1-5.4-1.9l-24.1 29.5c-1.4 1.7-3.5 2.7-5.6 2.7zm136.6 0c-4.1 0-7.4-3.3-7.4-7.4V39.4c0-4.1 3.3-7.4 7.4-7.4 4.1 0 7.4 3.3 7.4 7.4V89c0 4.1-3.3 7.4-7.4 7.4z" fill="#fff"/>
  </g>
</svg>
