<svg xmlns="http://www.w3.org/2000/svg" viewBox="0 0 179 88">
  <path d="M114.049 36.613H113.975H37.2402V87.9933H113.975H114.049V36.613Z" fill="#003399"/>
  <path d="M76.3402 44.3764H79.0154L76.8577 46.0569L77.6979 48.7186L75.5537 47.0786L73.4095 48.7186L74.2497 46.0569L72.0786 44.3764H74.7471L75.5537 41.7819L76.3402 44.3764Z" fill="#FFED00"/>
  <path d="M76.4344 78.6435H79.1096L76.9587 80.2634L77.7922 82.8244L75.648 81.2448L73.5037 82.8244L74.3507 80.2634L72.1729 78.6435H74.8414L75.648 76.1497L76.4344 78.6435Z" fill="#FFED00"/>
  <path d="M84.9105 76.3783H87.5924L85.4348 77.9915L86.275 80.5524L84.124 78.9728L81.9798 80.5524L82.8267 77.9915L80.6489 76.3783H83.3174L84.124 73.8778L84.9105 76.3783Z" fill="#FFED00"/>
  <path d="M84.9105 46.6618H87.5924L85.4348 48.2818L86.275 50.8427L84.124 49.2631L81.9798 50.8427L82.8267 48.2818L80.6489 46.6618H83.3174L84.124 44.1681L84.9105 46.6618Z" fill="#FFED00"/>
  <path d="M91.2084 52.96H93.8769L91.726 54.5732L92.5595 57.1342L90.4153 55.5546L88.2711 57.1342L89.118 54.5732L86.9402 52.96H89.6087L90.4153 50.4596L91.2084 52.96Z" fill="#FFED00"/>
  <path d="M91.2084 70.1675H93.8769L91.726 71.7874L92.5595 74.3484L90.4153 72.7688L88.2711 74.3484L89.118 71.7874L86.9402 70.1675H89.6087L90.4153 67.6737L91.2084 70.1675Z" fill="#FFED00"/>
  <path d="M93.5611 61.4293H96.243L94.0854 63.0492L94.9256 65.6102L92.7747 64.0306L90.6304 65.6102L91.4774 63.0492L89.2996 61.4293H91.9681L92.7747 58.9356L93.5611 61.4293Z" fill="#FFED00"/>
  <path d="M67.7029 46.6887H70.3714L68.2205 48.3019L69.054 50.8628L66.9098 49.2832L64.7656 50.8628L65.6125 48.3019L63.4414 46.6887H66.1032L66.9098 44.1882L67.7029 46.6887Z" fill="#FFED00"/>
  <path d="M61.5794 52.9801H64.2613L62.1037 54.5933L62.9372 57.1543L60.793 55.5747L58.6488 57.1543L59.4957 54.5933L57.3179 52.9801H59.9864L60.793 50.4797L61.5794 52.9801Z" fill="#FFED00"/>
  <path d="M59.3075 61.4562H61.9828L59.8318 63.0694L60.6653 65.6304L58.5211 64.0575L56.3769 65.6304L57.2238 63.0694L55.0527 61.4562H57.7145L58.5211 58.9558L59.3075 61.4562Z" fill="#FFED00"/>
  <path d="M61.5794 70.1877H64.2613L62.1037 71.8076L62.9372 74.3685L60.793 72.7889L58.6488 74.3685L59.4957 71.8076L57.3179 70.1877H59.9864L60.793 67.6939L61.5794 70.1877Z" fill="#FFED00"/>
  <path d="M67.7903 76.3985H70.4588L68.3079 78.0117L69.1414 80.5726L66.9972 78.993L64.853 80.5726L65.6999 78.0117L63.5288 76.3985H66.1906L66.9972 73.898L67.7903 76.3985Z" fill="#FFED00"/>
  <path d="M125.718 0.007S141.493 25.139 144.384 29.743c2.883 4.605 6.184 8.254 17.859 10.728S179 44.114 179 44.114v0.894s-7.421-1.58-16.965-3.71c-9.545-2.131-13.45-2.85-17.799-8.902C140.613 27.35 125.718 4.806 125.718 4.806V0z" fill="#6D6E70"/>
  <path d="M125.718 28.708s14.364 15.05 18.518 19.372c4.409 4.584 10.049 6.278 17.873 7.676 7.467 1.331 16.884 2.87 16.884 2.87v0.847s-8.845-1.452-16.884-2.823c-7.885-1.351-13.403-2.104-17.92-6.265-4.047-3.724-18.471-17.254-18.471-17.254v-4.43z" fill="#6D6E70"/>
  <path d="M125.718 35.49s13.658 12.684 18.518 17.02c4.47 3.985 8.093 5.229 17.92 6.97 9.827 1.74 16.837 2.823 16.837 2.823v0.894s-8.892-1.459-16.884-2.736c-7.992-1.27-13.087-1.775-17.873-5.653-5.519-4.477-18.518-15.177-18.518-15.177v-4.14z" fill="#6D6E70"/>
  <path d="M125.718 42.716s15.601 12.381 18.518 14.546c2.917 2.164 6.775 4.691 17.967 6.311 11.097 1.606 16.79 2.4 16.79 2.4v0.94s-10.062-1.458-16.79-2.305c-6.729-0.847-11.884-1.21-17.92-5.229-5.875-3.912-18.565-12.845-18.565-12.845v-3.818z" fill="#6D6E70"/>
  <path d="M125.718 49.666s15.648 10.419 18.612 12.072c2.964 1.647 6.446 4.336 17.873 5.795 11.427 1.459 16.79 2.117 16.79 2.117v0.894s-9.45-1.035-16.837-1.835c-7.381-0.8-12.415-1.882-17.92-4.9-5.505-3.011-18.518-10.62-18.518-10.62v-3.523z" fill="#6D6E70"/>
  <path d="M125.718 56.617s13.833 7.528 18.518 9.874c5.222 2.621 9.739 3.878 17.92 4.853 8.032 0.955 16.837 1.882 16.837 1.882v0.847s-8.14-0.874-16.837-1.694c-8.624-0.82-11.696-1.196-17.92-3.959-5.566-2.474-18.518-8.503-18.518-8.503v-3.3z" fill="#6D6E70"/>
  <path d="M125.718 63.661s10.929 4.678 18.612 7.73c7.555 2.998 13.329 3.254 17.92 3.771 2.023 0.229 16.743 1.741 16.743 1.741v0.847s-8.792-0.706-16.79-1.412c-7.999-0.706-11.447-1.008-17.92-3.152-6.554-2.178-18.565-6.366-18.565-6.366v-3.16z" fill="#6D6E70"/>
  <path d="M125.718 70.846s11.037 3.421 18.565 5.398c7.528 1.976 14.438 2.783 17.92 3.011 3.482 0.235 17.797 1.318 17.797 1.318v0.8s-7.575-0.518-16.844-1.177c-7.495-0.53-13.511-1.096-17.92-2.07-4.88-1.076-18.518-4.315-18.518-4.315v-2.965z" fill="#6D6E70"/>
  <path d="M125.718 77.911s9.027 1.56 18.565 3.139c7.152 1.183 16.838 1.929 17.873 1.976 1.035 0.047 16.837 1.13 16.837 1.13v0.847s-10.116-0.524-16.837-0.894c-7.004-0.39-13.968-0.813-17.92-1.224-8.859-0.92-18.518-2.144-18.518-2.144v-2.83z" fill="#6D6E70"/>
  <path d="M125.718 85.224s14.236 0.538 18.565 0.632c4.329 0.094 34.71 1.317 34.71 1.317V88H125.718v-2.776z" fill="#6D6E70"/>
  <path d="M162.149 44.356c-12.886-2.776-15.803-7.488-17.967-10.405-2.165-2.924-18.471-26.752-18.471-26.752v4.383c0.645 0.84 14.599 20.104 18.518 25.146 4.416 5.68 11.333 6.97 17.92 8.382 6.58 1.412 16.844 3.381 16.844 3.381v-0.753s-13.51-2.668-16.844-3.382z" fill="#6D6E70"/>
  <path d="M162.149 48.127c-10.58-2.07-14.862-5.418-17.967-9.464-3.106-4.053-18.471-24.776-18.471-24.776v5.095c0.645 0.76 14.7 17.913 18.471 22.229 4.396 5.034 10.533 6.358 17.967 7.723 7.434 1.364 16.844 3.152 16.844 3.152v-0.753s-10.735-2.01-16.844-3.206z" fill="#6D6E70"/>
  <path d="M162.149 52.032c-11.004-2.137-13.262-3.892-17.92-8.993-2.931-3.206-17.886-20.864-18.518-21.61v4.705s13.974 14.909 18.471 19.311c5.895 5.781 11.427 6.217 17.967 7.394 6.54 1.176 16.844 3.058 16.844 3.058v-0.8s-12.435-2.205-16.844-3.065z" fill="#6D6E70"/>
  <path d="M0.715 36.929s36.431-3.885 46.635-5.317c16.132-2.259 29.333-4.665 41.546-23.385 0 0 0.014-1.063 0-1.54C81.415 18.068 71.097 25.831 56.888 28.083 43.007 30.288 0.708 33.508 0.708 33.508v3.421z" fill="#6D6E70"/>
  <path d="M0.708 32.284s33.763-4.228 44.887-5.787C63.193 24.037 75.567 21.825 88.89 1.405s0-0.88 0-1.398C80.729 12.422 70.654 20.44 55.154 22.901 40.01 25.307 0.708 28.816 0.708 28.816v3.468z" fill="#6D6E70"/>
  <path d="M35.177 85.258H0.728v2.729h34.449v-2.729z" fill="#6D6E70"/>
  <path d="M88.89 30.006s0.02-1.607 0.013-1.95c-1.62 2.467-3.75 4.706-6.21 6.675h2.413c1.358-1.398 2.628-2.964 3.777-4.725h0.007z" fill="#6D6E70"/>
  <path d="M88.89 22.746s0.013-1.425 0.007-1.815c-3.905 5.942-9.72 10.687-16.441 13.833l3.966-0.013c4.584-2.669 8.846-6.46 12.462-12.005h0.006z" fill="#6D6E70"/>
  <path d="M88.89 15.487s0.013-1.244 0-1.674c-6.796 10.345-17.362 17.423-30.281 19.473-3.058 0.484-8.039 1.022-13.826 1.566l15.776-0.054c10.412-2.319 20.158-6.802 28.318-19.311h0.013z" fill="#6D6E70"/>
  <path d="M35.184 80.66C17.606 80.754 0.728 80.828 0.728 80.828v2.843s17.678-0.128 34.456-0.269V80.66z" fill="#6D6E70"/>
  <path d="M35.184 75.78c-17.456 0.195-34.462 0.343-34.462 0.343v2.904s17.86-0.236 34.462-0.498V75.78z" fill="#6D6E70"/>
  <path d="M35.177 70.887C17.848 71.189 0.721 71.418 0.721 71.418v2.964s18.048-0.356 34.456-0.746v-2.749z" fill="#6D6E70"/>
  <path d="M35.184 65.966c-17.201 0.424-34.462 0.74-34.462 0.74v3.018s18.256-0.497 34.462-1.015v-2.743z" fill="#6D6E70"/>
  <path d="M35.19 61.033c-17.073 0.544-34.469 0.974-34.469 0.974v3.079s18.478-0.646 34.469-1.304v-2.749z" fill="#6D6E70"/>
  <path d="M35.184 56.079c-16.939 0.686-34.462 1.224-34.462 1.224v3.132s18.706-0.82 34.462-1.633v-2.723z" fill="#6D6E70"/>
  <path d="M35.19 51.091c-16.811 0.834-34.476 1.5-34.476 1.5v3.192s18.955-1.015 34.476-1.99v-2.702z" fill="#6D6E70"/>
  <path d="M35.19 46.077c-16.683 0.995-34.476 1.808-34.476 1.808v3.247s19.211-1.237 34.476-2.38v-2.675z" fill="#6D6E70"/>
  <path d="M35.19 41.036c-16.569 1.17-34.476 2.151-34.476 2.151v3.307s19.466-1.492 34.476-2.81v-2.648z" fill="#6D6E70"/>
  <path d="M35.19 35.947c-16.468 1.365-34.482 2.528-34.482 2.528v3.361s19.728-1.788 34.482-3.294v-2.595z" fill="#6D6E70"/>
</svg>
