<svg width="256" height="256" viewBox="0 0 256 256" fill="none" xmlns="http://www.w3.org/2000/svg">
<circle cx="128" cy="128" r="128" fill="#00BC8C"/>
<path d="M192 95.36C192 87.04 185.28 80.32 176.96 80.32C172.8 80.32 169.28 82.24 166.4 85.12L138.88 73.6C134.72 71.68 129.92 71.68 125.76 73.6L98.24 85.12C95.36 82.24 91.84 80.32 87.68 80.32C79.36 80.32 72.64 87.04 72.64 95.36C72.64 103.68 79.36 110.4 87.68 110.4C91.84 110.4 95.36 108.48 98.24 105.6L125.76 117.12C127.84 118.08 129.92 118.56 132 118.56C134.08 118.56 136.16 118.08 138.24 117.12L165.76 105.6C168.64 108.48 172.16 110.4 176.32 110.4C184.64 110.4 191.36 103.68 191.36 95.36H192Z" fill="white"/>
<path d="M176.96 125.44C172.8 125.44 169.28 127.36 166.4 130.24L138.88 118.72C134.72 116.8 129.92 116.8 125.76 118.72L98.24 130.24C95.36 127.36 91.84 125.44 87.68 125.44C79.36 125.44 72.64 132.16 72.64 140.48C72.64 148.8 79.36 155.52 87.68 155.52C91.84 155.52 95.36 153.6 98.24 150.72L125.76 162.24C127.84 163.2 129.92 163.68 132 163.68C134.08 163.68 136.16 163.2 138.24 162.24L165.76 150.72C168.64 153.6 172.16 155.52 176.32 155.52C184.64 155.52 191.36 148.8 191.36 140.48C191.36 132.16 184.64 125.44 176.32 125.44H176.96Z" fill="white"/>
</svg>
