<?xml version="1.0" encoding="UTF-8" standalone="no"?>
<svg
   version="1.1"
   id="Layer_1"
   x="0px"
   y="0px"
   width="100%"
   viewBox="140 420 400 400"
   enable-background="new 0 0 672 672"
   xml:space="preserve"
   sodipodi:docname="chelys.svg"
   inkscape:version="1.4.4 (dcaf3e7d9e, 2026-05-05)"
   xmlns:inkscape="http://www.inkscape.org/namespaces/inkscape"
   xmlns:sodipodi="http://sodipodi.sourceforge.net/DTD/sodipodi-0.dtd"
   xmlns="http://www.w3.org/2000/svg"
   xmlns:svg="http://www.w3.org/2000/svg"><defs
   id="defs76"><mask
     maskUnits="userSpaceOnUse"
     id="mask57"><rect
       style="opacity:0.719932;fill:#286024;fill-opacity:1;fill-rule:evenodd;stroke:#ffffff;stroke-width:0;stroke-opacity:0.761398"
       id="rect57"
       width="197.73871"
       height="73.308006"
       x="246.93222"
       y="896.57617" /></mask><meshgradient
     inkscape:collect="always"
     id="meshgradient60"
     gradientUnits="userSpaceOnUse"
     x="-523.33972"
     y="400.80168"><meshrow
       id="meshrow60"><meshpatch
         id="meshpatch60"><stop
           path="c 50.532,-57.2571  132.461,-57.2571  182.993,0"
           style="stop-color:#ffffff;stop-opacity:1"
           id="stop60" /><stop
           path="c 50.532,57.2571  50.532,150.089  0,207.346"
           style="stop-color:#52c28b;stop-opacity:1"
           id="stop61" /><stop
           path="c -50.532,57.2571  -132.461,57.2571  -182.993,0"
           style="stop-color:#ffffff;stop-opacity:1"
           id="stop62" /><stop
           path="c -50.532,-57.2571  -50.532,-150.089  0,-207.346"
           style="stop-color:#52c28b;stop-opacity:1"
           id="stop63" /></meshpatch></meshrow></meshgradient></defs><sodipodi:namedview
   id="namedview76"
   pagecolor="#ffffff"
   bordercolor="#000000"
   borderopacity="0.25"
   inkscape:showpageshadow="2"
   inkscape:pageopacity="0.0"
   inkscape:pagecheckerboard="0"
   inkscape:deskcolor="#d1d1d1"
   inkscape:zoom="0.73307294"
   inkscape:cx="282.37299"
   inkscape:cy="755.72289"
   inkscape:window-width="2560"
   inkscape:window-height="1334"
   inkscape:window-x="0"
   inkscape:window-y="0"
   inkscape:window-maximized="1"
   inkscape:current-layer="Layer_1" />

<path
   fill="#52c28b"
   opacity="1"
   stroke="none"
   d="m 271.25775,524.07477 c 7.31915,-4.88239 14.70096,-9.67414 21.93802,-14.67532 5.9617,-4.11988 8.33408,-10.59214 10.54544,-17.0944 3.9494,-11.61267 9.41998,-22.35098 17.89935,-31.38266 11.13242,-11.85745 23.83942,-12.23059 35.07566,-0.46862 4.2055,4.40231 7.84863,9.51669 10.90188,14.79586 3.05869,5.28858 5.43592,11.05802 7.44361,16.84839 3.46362,9.9892 8.90377,17.81214 18.95419,22.35193 4.73794,2.14014 8.71948,5.9549 13.32703,9.31604 0.30148,0.49799 0.38427,0.65705 0.33468,1.1117 -1.10959,3.00219 -1.7977,5.77893 -2.97742,8.3283 -3.32797,7.19178 -6.85775,14.29017 -10.60534,21.2843 -10.41385,-7.27349 -20.17246,-15.0025 -30.7579,-21.35339 -8.7833,-5.26971 -18.94184,-8.05255 -29.2931,-6.14014 -19.66281,3.6327 -35.44339,14.45655 -49.49325,28.22956 -2.57224,-4.71942 -5.19828,-9.12708 -7.22537,-13.7948 -2.36802,-5.4527 -4.21335,-11.13239 -6.19687,-16.79895 0.0885,-0.0853 0.12939,-0.5578 0.12939,-0.5578 z"
   id="path2"
   inkscape:export-filename="path2.svg"
   inkscape:export-xdpi="96"
   inkscape:export-ydpi="96"
   sodipodi:nodetypes="csssssssccscsscscccssssccsssc" />


<path
   fill="#52c28b"
   opacity="1"
   stroke="none"
   d="m 413.5669,878.85014 c -6.79975,4.1474 -22.83217,12.65108 -29.54271,16.94627 -6.3588,4.07008 -12.96616,7.90691 -18.66053,12.83211 -3.37646,2.9203 -4.94516,7.95104 -7.76596,11.68031 -8.05817,10.65332 -15.75223,10.48723 -23.76498,-0.26121 -0.20215,-0.27115 -0.435,-0.53386 -0.57035,-0.83965 -10.08428,-18.9697 -35.03044,-28.41044 -52.88891,-40.21993 -0.58856,-0.67878 -0.8422,-0.95212 -0.97772,-1.68377 0.95477,-4.98718 1.16293,-9.77148 2.7763,-13.9849 2.38761,-6.2354 5.77283,-12.0655 8.99793,-17.87215 1.45752,1.41797 2.65045,2.63979 3.48706,3.89128 -6.42392,0.62277 -5.98694,6.6668 -7.97345,10.35867 -1.84464,3.42826 -2.2742,7.78915 -2.74927,11.81183 -0.1857,1.5723 1.20349,3.34201 1.87537,5.02182 1.33773,-0.60403 2.65982,-1.24898 4.01803,-1.79958 7.73509,-2.61882 17.0632,1.05189 25.07849,2.06142 4.13801,0.49161 7.70609,-1.29148 10.36139,-3.6698 -3.64972,-3.41205 -6.83252,-6.38748 -9.65353,-9.31382 4.69421,2.20833 8.94904,4.5561 13.37454,6.48932 10.5156,4.59345 21.31394,5.82785 31.87421,0.58404 9.37189,-4.65379 29.48603,-17.50761 38.88517,-22.47813 -1.12738,3.64679 -13.08729,14.87022 -17.77262,15.66454 -2.3584,0.39983 -4.71213,1.63888 -6.75101,3.00158 -2.05957,1.37648 -3.72717,3.37515 -5.56653,5.10123 2.11865,1.04302 4.14139,2.58565 6.37308,3.04037 8.64383,1.76141 17.35403,-12.28929 26.8631,-15.09084 0.44369,2.29283 10.14003,15.97535 10.6729,18.72899 z"
   id="path4"
   sodipodi:nodetypes="csssscccsccsscssccsscsscccc"
   style="stroke-width:1.0149;fill:#4a4be5;fill-opacity:0.92246151;opacity:1"
   mask="url(#mask57)"
   transform="translate(-5.3051847,-108.51514)" />























<path
   fill="#523BAD"
   opacity="1.000000"
   stroke="none"
   d=" M475.479858,508.579681   C475.107605,508.550171 474.732361,508.338562 474.328369,507.964661   C474.692017,508.000763 475.084412,508.199158 475.479858,508.579681  z"
   id="path40" />


<path
   fill="#523BAD"
   opacity="1.000000"
   stroke="none"
   d=" M478.531799,510.544617   C478.158539,510.541107 477.765839,510.358032 477.330811,510.014130   C477.696442,510.023895 478.104401,510.194489 478.531799,510.544617  z"
   id="path43" />























<g
   id="g10"
   transform="translate(10.230906,12.277087)"><path
     fill="#943db5"
     opacity="1"
     stroke="none"
     d="m 200.72804,510.86749 c 0.24426,-0.23251 0.48853,-0.46499 1.42055,-0.92877 1.65286,-1.02762 2.61793,-1.82391 3.58302,-2.62024 0.62046,-0.39401 1.24091,-0.78802 2.66713,-1.41113 5.99976,-1.94534 11.07926,-4.41803 16.41086,-5.22495 12.17465,-1.84262 23.83116,-0.44195 33.69782,8.12 3.45944,3.00195 3.30426,5.11551 0.0572,8.43136 -9.2734,9.46973 -18.46836,19.06311 -26.99277,29.19788 -3.74129,4.44806 -6.50734,9.1377 -13.27945,7.88367 -5.06868,0.0494 -10.13738,0.0988 -16.04982,-0.0353 -3.17546,-0.10535 -5.50717,-0.027 -7.83887,0.0512 -2.61737,-0.0555 -5.23475,-0.11096 -8.49362,-0.44153 -1.16045,-0.29846 -1.67941,-0.32184 -2.19836,-0.34522 -9.39707,-2.70398 -9.29239,-9.35864 -6.89095,-15.23858 1.5826,-3.87506 4.37494,-7.25605 7.1297,-11.23151 1.28539,-1.47131 2.06665,-2.5694 2.84793,-3.66742 2.02553,-2.08411 4.05109,-4.16827 6.61307,-6.45831 1.15666,-0.83948 1.77685,-1.47296 2.39703,-2.10651 1.02197,-0.9035 2.04396,-1.80701 3.58725,-2.88913 0.79163,-0.48089 1.06194,-0.7832 1.33226,-1.08548 z"
     id="path8" /><path
     fill="#523bad"
     opacity="1"
     stroke="none"
     d="m 194.67427,554.52075 c 2.06116,-0.26782 4.39287,-0.34613 7.12335,-0.3092 -2.01842,0.24298 -4.4356,0.37085 -7.12335,0.3092 z"
     id="path36" /><path
     fill="#523bad"
     opacity="1"
     stroke="none"
     d="m 186.54816,523.4834 c -0.53101,1.02154 -1.31227,2.11963 -2.31905,3.32104 0.53925,-1.01263 1.304,-2.1286 2.31905,-3.32104 z"
     id="path37" /><path
     fill="#523bad"
     opacity="1"
     stroke="none"
     d="m 205.51407,507.25238 c -0.74755,0.86243 -1.71262,1.65872 -2.91657,2.45325 0.74044,-0.84097 1.71975,-1.68015 2.91657,-2.45325 z"
     id="path38" /><path
     fill="#523bad"
     opacity="1"
     stroke="none"
     d="m 195.58517,514.83679 c -0.39682,0.63886 -1.01701,1.27234 -1.86554,1.90894 0.39518,-0.63605 1.01867,-1.27521 1.86554,-1.90894 z"
     id="path39" /><path
     fill="#21acbd"
     opacity="1"
     stroke="none"
     d="m 211.80142,622.05566 c 0.0657,0.29578 0.005,0.68549 -0.088,1.26368 -0.0927,-0.10871 -0.18039,-0.404 -0.19985,-0.70374 -0.01,-0.15112 0.10398,-0.31042 0.28789,-0.55994 z"
     id="path41" /><path
     fill="#523bad"
     opacity="1"
     stroke="none"
     d="m 183.82245,553.69824 c 0.40825,-0.13043 0.92721,-0.10705 1.65553,0.0768 -0.37537,0.13276 -0.9601,0.10486 -1.65553,-0.0768 z"
     id="path42" /><path
     fill="#523bad"
     opacity="1"
     stroke="none"
     d="m 200.56168,510.81305 c -0.10396,0.35672 -0.37427,0.65903 -0.80176,0.94824 0.10702,-0.34289 0.37121,-0.67279 0.80176,-0.94824 z"
     id="path44" /></g>
<g
   id="g6"
   transform="translate(0.16801,4.6243821)"><path
     fill="#523bad"
     opacity="1"
     stroke="none"
     d="m 229.92982,716.20709 c 3.64936,-5.40918 7.18014,-10.56274 10.92873,-15.55261 2.78613,-3.70868 5.85471,-7.20526 9.28728,-10.8869 0.85013,0.41736 1.21048,0.92541 1.45028,1.79468 -5.46527,7.94873 -10.95655,15.43866 -16.09867,23.16107 -2.98865,4.48846 -2.27918,9.07403 0.72001,13.53784 7.78696,11.58948 17.69826,21.14862 28.40517,29.93079 2.53839,2.08203 5.57684,3.5545 8.38525,5.30731 0.25363,0.26544 0.50727,0.53082 0.78711,0.93628 -0.58618,1.98956 -1.48083,3.7973 -1.7615,5.69586 -1.13568,7.68127 -5.01868,13.35998 -12.06403,16.60419 -8.76088,4.03411 -17.40062,8.52209 -26.51002,11.56457 -14.24158,4.75665 -21.03624,-1.48279 -17.27561,-15.95331 4.05709,-15.61114 8.92006,-31.03637 14.05655,-46.33282 2.28043,-6.79108 3.90088,-13.04492 -0.31055,-19.80695 z"
     id="path11" /></g>






<circle
   id="eye_left"
   cx="326.75"
   cy="480.85001"
   r="4.1500001"
   fill="#000000"
   stroke="none" /><circle
   id="eye_right"
   cx="349.25"
   cy="480.85001"
   r="4.1500001"
   fill="#000000"
   stroke="none" /><g
   id="g31"
   transform="matrix(-1,0,0,1,667.97759,10.277085)"><path
     fill="#943db5"
     opacity="1"
     stroke="none"
     d="m 200.72804,510.86749 c 0.24426,-0.23251 0.48853,-0.46499 1.42055,-0.92877 1.65286,-1.02762 2.61793,-1.82391 3.58302,-2.62024 0.62046,-0.39401 1.24091,-0.78802 2.66713,-1.41113 5.99976,-1.94534 11.07926,-4.41803 16.41086,-5.22495 12.17465,-1.84262 23.83116,-0.44195 33.69782,8.12 3.45944,3.00195 3.30426,5.11551 0.0572,8.43136 -9.2734,9.46973 -18.46836,19.06311 -26.99277,29.19788 -3.74129,4.44806 -6.50734,9.1377 -13.27945,7.88367 -5.06868,0.0494 -10.13738,0.0988 -16.04982,-0.0353 -3.17546,-0.10535 -5.50717,-0.027 -7.83887,0.0512 -2.61737,-0.0555 -5.23475,-0.11096 -8.49362,-0.44153 -1.16045,-0.29846 -1.67941,-0.32184 -2.19836,-0.34522 -9.39707,-2.70398 -9.29239,-9.35864 -6.89095,-15.23858 1.5826,-3.87506 4.37494,-7.25605 7.1297,-11.23151 1.28539,-1.47131 2.06665,-2.5694 2.84793,-3.66742 2.02553,-2.08411 4.05109,-4.16827 6.61307,-6.45831 1.15666,-0.83948 1.77685,-1.47296 2.39703,-2.10651 1.02197,-0.9035 2.04396,-1.80701 3.58725,-2.88913 0.79163,-0.48089 1.06194,-0.7832 1.33226,-1.08548 z"
     id="path13" /><path
     fill="#523bad"
     opacity="1"
     stroke="none"
     d="m 194.67427,554.52075 c 2.06116,-0.26782 4.39287,-0.34613 7.12335,-0.3092 -2.01842,0.24298 -4.4356,0.37085 -7.12335,0.3092 z"
     id="path15" /><path
     fill="#523bad"
     opacity="1"
     stroke="none"
     d="m 186.54816,523.4834 c -0.53101,1.02154 -1.31227,2.11963 -2.31905,3.32104 0.53925,-1.01263 1.304,-2.1286 2.31905,-3.32104 z"
     id="path18" /><path
     fill="#523bad"
     opacity="1"
     stroke="none"
     d="m 205.51407,507.25238 c -0.74755,0.86243 -1.71262,1.65872 -2.91657,2.45325 0.74044,-0.84097 1.71975,-1.68015 2.91657,-2.45325 z"
     id="path19" /><path
     fill="#523bad"
     opacity="1"
     stroke="none"
     d="m 195.58517,514.83679 c -0.39682,0.63886 -1.01701,1.27234 -1.86554,1.90894 0.39518,-0.63605 1.01867,-1.27521 1.86554,-1.90894 z"
     id="path20" /><path
     fill="#21acbd"
     opacity="1"
     stroke="none"
     d="m 211.80142,622.05566 c 0.0657,0.29578 0.005,0.68549 -0.088,1.26368 -0.0927,-0.10871 -0.18039,-0.404 -0.19985,-0.70374 -0.01,-0.15112 0.10398,-0.31042 0.28789,-0.55994 z"
     id="path21" /><path
     fill="#523bad"
     opacity="1"
     stroke="none"
     d="m 183.82245,553.69824 c 0.40825,-0.13043 0.92721,-0.10705 1.65553,0.0768 -0.37537,0.13276 -0.9601,0.10486 -1.65553,-0.0768 z"
     id="path22" /><path
     fill="#523bad"
     opacity="1"
     stroke="none"
     d="m 200.56168,510.81305 c -0.10396,0.35672 -0.37427,0.65903 -0.80176,0.94824 0.10702,-0.34289 0.37121,-0.67279 0.80176,-0.94824 z"
     id="path23" /></g><g
   id="g47"
   transform="matrix(-1,0,0,1,710.19319,62.388372)"><path
     fill="#523bad"
     opacity="1"
     stroke="none"
     d="m 258.86719,658.33234 c 3.64936,-5.40918 7.18014,-10.56274 10.92873,-15.55261 2.78613,-3.70868 5.85471,-7.20526 9.28728,-10.8869 0.85013,0.41736 1.21048,0.92541 1.45028,1.79468 -5.46527,7.94873 -10.95655,15.43866 -16.09867,23.16107 -2.98865,4.48846 -2.27918,9.07403 0.72001,13.53784 7.78696,11.58948 17.69826,21.14862 28.40517,29.93079 2.53839,2.08203 5.57684,3.5545 8.38525,5.30731 0.25363,0.26544 0.50727,0.53082 0.78711,0.93628 -0.58618,1.98956 -1.48083,3.7973 -1.7615,5.69586 -1.13568,7.68127 -5.01868,13.35998 -12.06403,16.60419 -8.76088,4.03411 -17.40062,8.52209 -26.51002,11.56457 -14.24158,4.75665 -21.03624,-1.48279 -17.27561,-15.95331 4.05709,-15.61114 8.92006,-31.03637 14.05655,-46.33282 2.28043,-6.79108 3.90088,-13.04492 -0.31055,-19.80695 z"
     id="path45" /></g><g
   id="g34"
   transform="matrix(-1,0,0,1,772.17093,142.27541)"
   style="opacity:1;fill:#52c28b;fill-opacity:1"><ellipse
     style="opacity:0.719932;fill:#52c28b;fill-opacity:1;fill-rule:evenodd;stroke:#ffffff;stroke-width:0;stroke-opacity:0.761398"
     id="path35"
     cx="-431.84344"
     cy="504.47485"
     rx="129.39528"
     ry="146.61601"
     transform="scale(-1,1)" /></g><g
   id="g59"
   transform="matrix(-0.79969676,0,0,0.83717936,685.75299,226.54222)"
   style="opacity:1;fill:#52c28b;fill-opacity:1"><ellipse
     style="opacity:0.719932;fill:#52c28b;fill-opacity:1;fill-rule:evenodd;stroke:#ffffff;stroke-width:0;stroke-opacity:0.761398"
     id="ellipse59"
     cx="-431.84344"
     cy="504.47485"
     rx="129.39528"
     ry="146.61601"
     transform="scale(-1,1)" /></g><g
   id="g60"
   transform="matrix(-1,0,0,1,772.17093,142.27541)"
   style="opacity:1;fill:#52c28b;fill-opacity:1"><ellipse
     style="opacity:0.719932;fill:url(#meshgradient60);fill-opacity:1;fill-rule:evenodd;stroke:#ffffff;stroke-width:0;stroke-opacity:0.761398"
     id="ellipse60"
     cx="-431.84344"
     cy="504.47485"
     rx="129.39528"
     ry="146.61601"
     transform="scale(-1,1)" /></g><script
   id="mesh_polyfill"
   type="text/javascript">
!function(){const t=&quot;http://www.w3.org/2000/svg&quot;,e=&quot;http://www.w3.org/1999/xlink&quot;,s=&quot;http://www.w3.org/1999/xhtml&quot;,r=2;if(document.createElementNS(t,&quot;meshgradient&quot;).x)return;const n=(t,e,s,r)=&gt;{let n=new x(.5*(e.x+s.x),.5*(e.y+s.y)),o=new x(.5*(t.x+e.x),.5*(t.y+e.y)),i=new x(.5*(s.x+r.x),.5*(s.y+r.y)),a=new x(.5*(n.x+o.x),.5*(n.y+o.y)),h=new x(.5*(n.x+i.x),.5*(n.y+i.y)),l=new x(.5*(a.x+h.x),.5*(a.y+h.y));return[[t,o,a,l],[l,h,i,r]]},o=t=&gt;{let e=t[0].distSquared(t[1]),s=t[2].distSquared(t[3]),r=.25*t[0].distSquared(t[2]),n=.25*t[1].distSquared(t[3]),o=e&gt;s?e:s,i=r&gt;n?r:n;return 18*(o&gt;i?o:i)},i=(t,e)=&gt;Math.sqrt(t.distSquared(e)),a=(t,e)=&gt;t.scale(2/3).add(e.scale(1/3)),h=t=&gt;{let e,s,r,n,o,i,a,h=new g;return t.match(/(\w+\(\s*[^)]+\))+/g).forEach(t=&gt;{let l=t.match(/[\w.-]+/g),d=l.shift();switch(d){case&quot;translate&quot;:2===l.length?e=new g(1,0,0,1,l[0],l[1]):(console.error(&quot;mesh.js: translate does not have 2 arguments!&quot;),e=new g(1,0,0,1,0,0)),h=h.append(e);break;case&quot;scale&quot;:1===l.length?s=new g(l[0],0,0,l[0],0,0):2===l.length?s=new g(l[0],0,0,l[1],0,0):(console.error(&quot;mesh.js: scale does not have 1 or 2 arguments!&quot;),s=new g(1,0,0,1,0,0)),h=h.append(s);break;case&quot;rotate&quot;:if(3===l.length&amp;&amp;(e=new g(1,0,0,1,l[1],l[2]),h=h.append(e)),l[0]){r=l[0]*Math.PI/180;let t=Math.cos(r),e=Math.sin(r);Math.abs(t)&lt;1e-16&amp;&amp;(t=0),Math.abs(e)&lt;1e-16&amp;&amp;(e=0),a=new g(t,e,-e,t,0,0),h=h.append(a)}else console.error(&quot;math.js: No argument to rotate transform!&quot;);3===l.length&amp;&amp;(e=new g(1,0,0,1,-l[1],-l[2]),h=h.append(e));break;case&quot;skewX&quot;:l[0]?(r=l[0]*Math.PI/180,n=Math.tan(r),o=new g(1,0,n,1,0,0),h=h.append(o)):console.error(&quot;math.js: No argument to skewX transform!&quot;);break;case&quot;skewY&quot;:l[0]?(r=l[0]*Math.PI/180,n=Math.tan(r),i=new g(1,n,0,1,0,0),h=h.append(i)):console.error(&quot;math.js: No argument to skewY transform!&quot;);break;case&quot;matrix&quot;:6===l.length?h=h.append(new g(...l)):console.error(&quot;math.js: Incorrect number of arguments for matrix!&quot;);break;default:console.error(&quot;mesh.js: Unhandled transform type: &quot;+d)}}),h},l=t=&gt;{let e=[],s=t.split(/[ ,]+/);for(let t=0,r=s.length-1;t&lt;r;t+=2)e.push(new x(parseFloat(s[t]),parseFloat(s[t+1])));return e},d=(t,e)=&gt;{for(let s in e)t.setAttribute(s,e[s])},c=(t,e,s,r,n)=&gt;{let o,i,a=[0,0,0,0];for(let h=0;h&lt;3;++h)e[h]&lt;t[h]&amp;&amp;e[h]&lt;s[h]||t[h]&lt;e[h]&amp;&amp;s[h]&lt;e[h]?a[h]=0:(a[h]=.5*((e[h]-t[h])/r+(s[h]-e[h])/n),o=Math.abs(3*(e[h]-t[h])/r),i=Math.abs(3*(s[h]-e[h])/n),a[h]&gt;o?a[h]=o:a[h]&gt;i&amp;&amp;(a[h]=i));return a},u=[[1,0,0,0,0,0,0,0,0,0,0,0,0,0,0,0],[0,0,0,0,1,0,0,0,0,0,0,0,0,0,0,0],[-3,3,0,0,-2,-1,0,0,0,0,0,0,0,0,0,0],[2,-2,0,0,1,1,0,0,0,0,0,0,0,0,0,0],[0,0,0,0,0,0,0,0,1,0,0,0,0,0,0,0],[0,0,0,0,0,0,0,0,0,0,0,0,1,0,0,0],[0,0,0,0,0,0,0,0,-3,3,0,0,-2,-1,0,0],[0,0,0,0,0,0,0,0,2,-2,0,0,1,1,0,0],[-3,0,3,0,0,0,0,0,-2,0,-1,0,0,0,0,0],[0,0,0,0,-3,0,3,0,0,0,0,0,-2,0,-1,0],[9,-9,-9,9,6,3,-6,-3,6,-6,3,-3,4,2,2,1],[-6,6,6,-6,-3,-3,3,3,-4,4,-2,2,-2,-2,-1,-1],[2,0,-2,0,0,0,0,0,1,0,1,0,0,0,0,0],[0,0,0,0,2,0,-2,0,0,0,0,0,1,0,1,0],[-6,6,6,-6,-4,-2,4,2,-3,3,-3,3,-2,-1,-2,-1],[4,-4,-4,4,2,2,-2,-2,2,-2,2,-2,1,1,1,1]],f=t=&gt;{let e=[];for(let s=0;s&lt;16;++s){e[s]=0;for(let r=0;r&lt;16;++r)e[s]+=u[s][r]*t[r]}return e},p=(t,e,s)=&gt;{const r=e*e,n=s*s,o=e*e*e,i=s*s*s;return t[0]+t[1]*e+t[2]*r+t[3]*o+t[4]*s+t[5]*s*e+t[6]*s*r+t[7]*s*o+t[8]*n+t[9]*n*e+t[10]*n*r+t[11]*n*o+t[12]*i+t[13]*i*e+t[14]*i*r+t[15]*i*o},y=t=&gt;{let e=[],s=[],r=[];for(let s=0;s&lt;4;++s)e[s]=[],e[s][0]=n(t[0][s],t[1][s],t[2][s],t[3][s]),e[s][1]=[],e[s][1].push(...n(...e[s][0][0])),e[s][1].push(...n(...e[s][0][1])),e[s][2]=[],e[s][2].push(...n(...e[s][1][0])),e[s][2].push(...n(...e[s][1][1])),e[s][2].push(...n(...e[s][1][2])),e[s][2].push(...n(...e[s][1][3]));for(let t=0;t&lt;8;++t){s[t]=[];for(let r=0;r&lt;4;++r)s[t][r]=[],s[t][r][0]=n(e[0][2][t][r],e[1][2][t][r],e[2][2][t][r],e[3][2][t][r]),s[t][r][1]=[],s[t][r][1].push(...n(...s[t][r][0][0])),s[t][r][1].push(...n(...s[t][r][0][1])),s[t][r][2]=[],s[t][r][2].push(...n(...s[t][r][1][0])),s[t][r][2].push(...n(...s[t][r][1][1])),s[t][r][2].push(...n(...s[t][r][1][2])),s[t][r][2].push(...n(...s[t][r][1][3]))}for(let t=0;t&lt;8;++t){r[t]=[];for(let e=0;e&lt;8;++e)r[t][e]=[],r[t][e][0]=s[t][0][2][e],r[t][e][1]=s[t][1][2][e],r[t][e][2]=s[t][2][2][e],r[t][e][3]=s[t][3][2][e]}return r};class x{constructor(t,e){this.x=t||0,this.y=e||0}toString(){return`(x=${this.x}, y=${this.y})`}clone(){return new x(this.x,this.y)}add(t){return new x(this.x+t.x,this.y+t.y)}scale(t){return void 0===t.x?new x(this.x*t,this.y*t):new x(this.x*t.x,this.y*t.y)}distSquared(t){let e=this.x-t.x,s=this.y-t.y;return e*e+s*s}transform(t){let e=this.x*t.a+this.y*t.c+t.e,s=this.x*t.b+this.y*t.d+t.f;return new x(e,s)}}class g{constructor(t,e,s,r,n,o){void 0===t?(this.a=1,this.b=0,this.c=0,this.d=1,this.e=0,this.f=0):(this.a=t,this.b=e,this.c=s,this.d=r,this.e=n,this.f=o)}toString(){return`affine: ${this.a} ${this.c} ${this.e} \n       ${this.b} ${this.d} ${this.f}`}append(t){t instanceof g||console.error(&quot;mesh.js: argument to Affine.append is not affine!&quot;);let e=this.a*t.a+this.c*t.b,s=this.b*t.a+this.d*t.b,r=this.a*t.c+this.c*t.d,n=this.b*t.c+this.d*t.d,o=this.a*t.e+this.c*t.f+this.e,i=this.b*t.e+this.d*t.f+this.f;return new g(e,s,r,n,o,i)}}class w{constructor(t,e){this.nodes=t,this.colors=e}paintCurve(t,e){if(o(this.nodes)&gt;r){const s=n(...this.nodes);let r=[[],[]],o=[[],[]];for(let t=0;t&lt;4;++t)r[0][t]=this.colors[0][t],r[1][t]=(this.colors[0][t]+this.colors[1][t])/2,o[0][t]=r[1][t],o[1][t]=this.colors[1][t];let i=new w(s[0],r),a=new w(s[1],o);i.paintCurve(t,e),a.paintCurve(t,e)}else{let s=Math.round(this.nodes[0].x);if(s&gt;=0&amp;&amp;s&lt;e){let r=4*(~~this.nodes[0].y*e+s);t[r]=Math.round(this.colors[0][0]),t[r+1]=Math.round(this.colors[0][1]),t[r+2]=Math.round(this.colors[0][2]),t[r+3]=Math.round(this.colors[0][3])}}}}class m{constructor(t,e){this.nodes=t,this.colors=e}split(){let t=[[],[],[],[]],e=[[],[],[],[]],s=[[[],[]],[[],[]]],r=[[[],[]],[[],[]]];for(let s=0;s&lt;4;++s){const r=n(this.nodes[0][s],this.nodes[1][s],this.nodes[2][s],this.nodes[3][s]);t[0][s]=r[0][0],t[1][s]=r[0][1],t[2][s]=r[0][2],t[3][s]=r[0][3],e[0][s]=r[1][0],e[1][s]=r[1][1],e[2][s]=r[1][2],e[3][s]=r[1][3]}for(let t=0;t&lt;4;++t)s[0][0][t]=this.colors[0][0][t],s[0][1][t]=this.colors[0][1][t],s[1][0][t]=(this.colors[0][0][t]+this.colors[1][0][t])/2,s[1][1][t]=(this.colors[0][1][t]+this.colors[1][1][t])/2,r[0][0][t]=s[1][0][t],r[0][1][t]=s[1][1][t],r[1][0][t]=this.colors[1][0][t],r[1][1][t]=this.colors[1][1][t];return[new m(t,s),new m(e,r)]}paint(t,e){let s,n=!1;for(let t=0;t&lt;4;++t)if((s=o([this.nodes[0][t],this.nodes[1][t],this.nodes[2][t],this.nodes[3][t]]))&gt;r){n=!0;break}if(n){let s=this.split();s[0].paint(t,e),s[1].paint(t,e)}else{new w([...this.nodes[0]],[...this.colors[0]]).paintCurve(t,e)}}}class b{constructor(t){this.readMesh(t),this.type=t.getAttribute(&quot;type&quot;)||&quot;bilinear&quot;}readMesh(t){let e=[[]],s=[[]],r=Number(t.getAttribute(&quot;x&quot;)),n=Number(t.getAttribute(&quot;y&quot;));e[0][0]=new x(r,n);let o=t.children;for(let t=0,r=o.length;t&lt;r;++t){e[3*t+1]=[],e[3*t+2]=[],e[3*t+3]=[],s[t+1]=[];let r=o[t].children;for(let n=0,o=r.length;n&lt;o;++n){let o=r[n].children;for(let r=0,i=o.length;r&lt;i;++r){let i=r;0!==t&amp;&amp;++i;let h,d=o[r].getAttribute(&quot;path&quot;),c=&quot;l&quot;;null!=d&amp;&amp;(c=(h=d.match(/\s*([lLcC])\s*(.*)/))[1]);let u=l(h[2]);switch(c){case&quot;l&quot;:0===i?(e[3*t][3*n+3]=u[0].add(e[3*t][3*n]),e[3*t][3*n+1]=a(e[3*t][3*n],e[3*t][3*n+3]),e[3*t][3*n+2]=a(e[3*t][3*n+3],e[3*t][3*n])):1===i?(e[3*t+3][3*n+3]=u[0].add(e[3*t][3*n+3]),e[3*t+1][3*n+3]=a(e[3*t][3*n+3],e[3*t+3][3*n+3]),e[3*t+2][3*n+3]=a(e[3*t+3][3*n+3],e[3*t][3*n+3])):2===i?(0===n&amp;&amp;(e[3*t+3][3*n+0]=u[0].add(e[3*t+3][3*n+3])),e[3*t+3][3*n+1]=a(e[3*t+3][3*n],e[3*t+3][3*n+3]),e[3*t+3][3*n+2]=a(e[3*t+3][3*n+3],e[3*t+3][3*n])):(e[3*t+1][3*n]=a(e[3*t][3*n],e[3*t+3][3*n]),e[3*t+2][3*n]=a(e[3*t+3][3*n],e[3*t][3*n]));break;case&quot;L&quot;:0===i?(e[3*t][3*n+3]=u[0],e[3*t][3*n+1]=a(e[3*t][3*n],e[3*t][3*n+3]),e[3*t][3*n+2]=a(e[3*t][3*n+3],e[3*t][3*n])):1===i?(e[3*t+3][3*n+3]=u[0],e[3*t+1][3*n+3]=a(e[3*t][3*n+3],e[3*t+3][3*n+3]),e[3*t+2][3*n+3]=a(e[3*t+3][3*n+3],e[3*t][3*n+3])):2===i?(0===n&amp;&amp;(e[3*t+3][3*n+0]=u[0]),e[3*t+3][3*n+1]=a(e[3*t+3][3*n],e[3*t+3][3*n+3]),e[3*t+3][3*n+2]=a(e[3*t+3][3*n+3],e[3*t+3][3*n])):(e[3*t+1][3*n]=a(e[3*t][3*n],e[3*t+3][3*n]),e[3*t+2][3*n]=a(e[3*t+3][3*n],e[3*t][3*n]));break;case&quot;c&quot;:0===i?(e[3*t][3*n+1]=u[0].add(e[3*t][3*n]),e[3*t][3*n+2]=u[1].add(e[3*t][3*n]),e[3*t][3*n+3]=u[2].add(e[3*t][3*n])):1===i?(e[3*t+1][3*n+3]=u[0].add(e[3*t][3*n+3]),e[3*t+2][3*n+3]=u[1].add(e[3*t][3*n+3]),e[3*t+3][3*n+3]=u[2].add(e[3*t][3*n+3])):2===i?(e[3*t+3][3*n+2]=u[0].add(e[3*t+3][3*n+3]),e[3*t+3][3*n+1]=u[1].add(e[3*t+3][3*n+3]),0===n&amp;&amp;(e[3*t+3][3*n+0]=u[2].add(e[3*t+3][3*n+3]))):(e[3*t+2][3*n]=u[0].add(e[3*t+3][3*n]),e[3*t+1][3*n]=u[1].add(e[3*t+3][3*n]));break;case&quot;C&quot;:0===i?(e[3*t][3*n+1]=u[0],e[3*t][3*n+2]=u[1],e[3*t][3*n+3]=u[2]):1===i?(e[3*t+1][3*n+3]=u[0],e[3*t+2][3*n+3]=u[1],e[3*t+3][3*n+3]=u[2]):2===i?(e[3*t+3][3*n+2]=u[0],e[3*t+3][3*n+1]=u[1],0===n&amp;&amp;(e[3*t+3][3*n+0]=u[2])):(e[3*t+2][3*n]=u[0],e[3*t+1][3*n]=u[1]);break;default:console.error(&quot;mesh.js: &quot;+c+&quot; invalid path type.&quot;)}if(0===t&amp;&amp;0===n||r&gt;0){let e=window.getComputedStyle(o[r]).stopColor.match(/^rgb\s*\(\s*(\d+)\s*,\s*(\d+)\s*,\s*(\d+)\s*\)$/i),a=window.getComputedStyle(o[r]).stopOpacity,h=255;a&amp;&amp;(h=Math.floor(255*a)),e&amp;&amp;(0===i?(s[t][n]=[],s[t][n][0]=Math.floor(e[1]),s[t][n][1]=Math.floor(e[2]),s[t][n][2]=Math.floor(e[3]),s[t][n][3]=h):1===i?(s[t][n+1]=[],s[t][n+1][0]=Math.floor(e[1]),s[t][n+1][1]=Math.floor(e[2]),s[t][n+1][2]=Math.floor(e[3]),s[t][n+1][3]=h):2===i?(s[t+1][n+1]=[],s[t+1][n+1][0]=Math.floor(e[1]),s[t+1][n+1][1]=Math.floor(e[2]),s[t+1][n+1][2]=Math.floor(e[3]),s[t+1][n+1][3]=h):3===i&amp;&amp;(s[t+1][n]=[],s[t+1][n][0]=Math.floor(e[1]),s[t+1][n][1]=Math.floor(e[2]),s[t+1][n][2]=Math.floor(e[3]),s[t+1][n][3]=h))}}e[3*t+1][3*n+1]=new x,e[3*t+1][3*n+2]=new x,e[3*t+2][3*n+1]=new x,e[3*t+2][3*n+2]=new x,e[3*t+1][3*n+1].x=(-4*e[3*t][3*n].x+6*(e[3*t][3*n+1].x+e[3*t+1][3*n].x)+-2*(e[3*t][3*n+3].x+e[3*t+3][3*n].x)+3*(e[3*t+3][3*n+1].x+e[3*t+1][3*n+3].x)+-1*e[3*t+3][3*n+3].x)/9,e[3*t+1][3*n+2].x=(-4*e[3*t][3*n+3].x+6*(e[3*t][3*n+2].x+e[3*t+1][3*n+3].x)+-2*(e[3*t][3*n].x+e[3*t+3][3*n+3].x)+3*(e[3*t+3][3*n+2].x+e[3*t+1][3*n].x)+-1*e[3*t+3][3*n].x)/9,e[3*t+2][3*n+1].x=(-4*e[3*t+3][3*n].x+6*(e[3*t+3][3*n+1].x+e[3*t+2][3*n].x)+-2*(e[3*t+3][3*n+3].x+e[3*t][3*n].x)+3*(e[3*t][3*n+1].x+e[3*t+2][3*n+3].x)+-1*e[3*t][3*n+3].x)/9,e[3*t+2][3*n+2].x=(-4*e[3*t+3][3*n+3].x+6*(e[3*t+3][3*n+2].x+e[3*t+2][3*n+3].x)+-2*(e[3*t+3][3*n].x+e[3*t][3*n+3].x)+3*(e[3*t][3*n+2].x+e[3*t+2][3*n].x)+-1*e[3*t][3*n].x)/9,e[3*t+1][3*n+1].y=(-4*e[3*t][3*n].y+6*(e[3*t][3*n+1].y+e[3*t+1][3*n].y)+-2*(e[3*t][3*n+3].y+e[3*t+3][3*n].y)+3*(e[3*t+3][3*n+1].y+e[3*t+1][3*n+3].y)+-1*e[3*t+3][3*n+3].y)/9,e[3*t+1][3*n+2].y=(-4*e[3*t][3*n+3].y+6*(e[3*t][3*n+2].y+e[3*t+1][3*n+3].y)+-2*(e[3*t][3*n].y+e[3*t+3][3*n+3].y)+3*(e[3*t+3][3*n+2].y+e[3*t+1][3*n].y)+-1*e[3*t+3][3*n].y)/9,e[3*t+2][3*n+1].y=(-4*e[3*t+3][3*n].y+6*(e[3*t+3][3*n+1].y+e[3*t+2][3*n].y)+-2*(e[3*t+3][3*n+3].y+e[3*t][3*n].y)+3*(e[3*t][3*n+1].y+e[3*t+2][3*n+3].y)+-1*e[3*t][3*n+3].y)/9,e[3*t+2][3*n+2].y=(-4*e[3*t+3][3*n+3].y+6*(e[3*t+3][3*n+2].y+e[3*t+2][3*n+3].y)+-2*(e[3*t+3][3*n].y+e[3*t][3*n+3].y)+3*(e[3*t][3*n+2].y+e[3*t+2][3*n].y)+-1*e[3*t][3*n].y)/9}}this.nodes=e,this.colors=s}paintMesh(t,e){let s=(this.nodes.length-1)/3,r=(this.nodes[0].length-1)/3;if(&quot;bilinear&quot;===this.type||s&lt;2||r&lt;2){let n;for(let o=0;o&lt;s;++o)for(let s=0;s&lt;r;++s){let r=[];for(let t=3*o,e=3*o+4;t&lt;e;++t)r.push(this.nodes[t].slice(3*s,3*s+4));let i=[];i.push(this.colors[o].slice(s,s+2)),i.push(this.colors[o+1].slice(s,s+2)),(n=new m(r,i)).paint(t,e)}}else{let n,o,a,h,l,d,u;const x=s,g=r;s++,r++;let w=new Array(s);for(let t=0;t&lt;s;++t){w[t]=new Array(r);for(let e=0;e&lt;r;++e)w[t][e]=[],w[t][e][0]=this.nodes[3*t][3*e],w[t][e][1]=this.colors[t][e]}for(let t=0;t&lt;s;++t)for(let e=0;e&lt;r;++e)0!==t&amp;&amp;t!==x&amp;&amp;(n=i(w[t-1][e][0],w[t][e][0]),o=i(w[t+1][e][0],w[t][e][0]),w[t][e][2]=c(w[t-1][e][1],w[t][e][1],w[t+1][e][1],n,o)),0!==e&amp;&amp;e!==g&amp;&amp;(n=i(w[t][e-1][0],w[t][e][0]),o=i(w[t][e+1][0],w[t][e][0]),w[t][e][3]=c(w[t][e-1][1],w[t][e][1],w[t][e+1][1],n,o));for(let t=0;t&lt;r;++t){w[0][t][2]=[],w[x][t][2]=[];for(let e=0;e&lt;4;++e)n=i(w[1][t][0],w[0][t][0]),o=i(w[x][t][0],w[x-1][t][0]),w[0][t][2][e]=n&gt;0?2*(w[1][t][1][e]-w[0][t][1][e])/n-w[1][t][2][e]:0,w[x][t][2][e]=o&gt;0?2*(w[x][t][1][e]-w[x-1][t][1][e])/o-w[x-1][t][2][e]:0}for(let t=0;t&lt;s;++t){w[t][0][3]=[],w[t][g][3]=[];for(let e=0;e&lt;4;++e)n=i(w[t][1][0],w[t][0][0]),o=i(w[t][g][0],w[t][g-1][0]),w[t][0][3][e]=n&gt;0?2*(w[t][1][1][e]-w[t][0][1][e])/n-w[t][1][3][e]:0,w[t][g][3][e]=o&gt;0?2*(w[t][g][1][e]-w[t][g-1][1][e])/o-w[t][g-1][3][e]:0}for(let s=0;s&lt;x;++s)for(let r=0;r&lt;g;++r){let n=i(w[s][r][0],w[s+1][r][0]),o=i(w[s][r+1][0],w[s+1][r+1][0]),c=i(w[s][r][0],w[s][r+1][0]),x=i(w[s+1][r][0],w[s+1][r+1][0]),g=[[],[],[],[]];for(let t=0;t&lt;4;++t){(d=[])[0]=w[s][r][1][t],d[1]=w[s+1][r][1][t],d[2]=w[s][r+1][1][t],d[3]=w[s+1][r+1][1][t],d[4]=w[s][r][2][t]*n,d[5]=w[s+1][r][2][t]*n,d[6]=w[s][r+1][2][t]*o,d[7]=w[s+1][r+1][2][t]*o,d[8]=w[s][r][3][t]*c,d[9]=w[s+1][r][3][t]*x,d[10]=w[s][r+1][3][t]*c,d[11]=w[s+1][r+1][3][t]*x,d[12]=0,d[13]=0,d[14]=0,d[15]=0,u=f(d);for(let e=0;e&lt;9;++e){g[t][e]=[];for(let s=0;s&lt;9;++s)g[t][e][s]=p(u,e/8,s/8),g[t][e][s]&gt;255?g[t][e][s]=255:g[t][e][s]&lt;0&amp;&amp;(g[t][e][s]=0)}}h=[];for(let t=3*s,e=3*s+4;t&lt;e;++t)h.push(this.nodes[t].slice(3*r,3*r+4));l=y(h);for(let s=0;s&lt;8;++s)for(let r=0;r&lt;8;++r)(a=new m(l[s][r],[[[g[0][s][r],g[1][s][r],g[2][s][r],g[3][s][r]],[g[0][s][r+1],g[1][s][r+1],g[2][s][r+1],g[3][s][r+1]]],[[g[0][s+1][r],g[1][s+1][r],g[2][s+1][r],g[3][s+1][r]],[g[0][s+1][r+1],g[1][s+1][r+1],g[2][s+1][r+1],g[3][s+1][r+1]]]])).paint(t,e)}}}transform(t){if(t instanceof x)for(let e=0,s=this.nodes.length;e&lt;s;++e)for(let s=0,r=this.nodes[0].length;s&lt;r;++s)this.nodes[e][s]=this.nodes[e][s].add(t);else if(t instanceof g)for(let e=0,s=this.nodes.length;e&lt;s;++e)for(let s=0,r=this.nodes[0].length;s&lt;r;++s)this.nodes[e][s]=this.nodes[e][s].transform(t)}scale(t){for(let e=0,s=this.nodes.length;e&lt;s;++e)for(let s=0,r=this.nodes[0].length;s&lt;r;++s)this.nodes[e][s]=this.nodes[e][s].scale(t)}}document.querySelectorAll(&quot;rect,circle,ellipse,path,text&quot;).forEach((r,n)=&gt;{let o=r.getAttribute(&quot;id&quot;);o||(o=&quot;patchjs_shape&quot;+n,r.setAttribute(&quot;id&quot;,o));const i=r.style.fill.match(/^url\(\s*&quot;?\s*#([^\s&quot;]+)&quot;?\s*\)/),a=r.style.stroke.match(/^url\(\s*&quot;?\s*#([^\s&quot;]+)&quot;?\s*\)/);if(i&amp;&amp;i[1]){const a=document.getElementById(i[1]);if(a&amp;&amp;&quot;meshgradient&quot;===a.nodeName){const i=r.getBBox();let l=document.createElementNS(s,&quot;canvas&quot;);d(l,{width:i.width,height:i.height});const c=l.getContext(&quot;2d&quot;);let u=c.createImageData(i.width,i.height);const f=new b(a);&quot;objectBoundingBox&quot;===a.getAttribute(&quot;gradientUnits&quot;)&amp;&amp;f.scale(new x(i.width,i.height));const p=a.getAttribute(&quot;gradientTransform&quot;);null!=p&amp;&amp;f.transform(h(p)),&quot;userSpaceOnUse&quot;===a.getAttribute(&quot;gradientUnits&quot;)&amp;&amp;f.transform(new x(-i.x,-i.y)),f.paintMesh(u.data,l.width),c.putImageData(u,0,0);const y=document.createElementNS(t,&quot;image&quot;);d(y,{width:i.width,height:i.height,x:i.x,y:i.y});let g=l.toDataURL();y.setAttributeNS(e,&quot;xlink:href&quot;,g),r.parentNode.insertBefore(y,r),r.style.fill=&quot;none&quot;;const w=document.createElementNS(t,&quot;use&quot;);w.setAttributeNS(e,&quot;xlink:href&quot;,&quot;#&quot;+o);const m=&quot;patchjs_clip&quot;+n,M=document.createElementNS(t,&quot;clipPath&quot;);M.setAttribute(&quot;id&quot;,m),M.appendChild(w),r.parentElement.insertBefore(M,r),y.setAttribute(&quot;clip-path&quot;,&quot;url(#&quot;+m+&quot;)&quot;),u=null,l=null,g=null}}if(a&amp;&amp;a[1]){const o=document.getElementById(a[1]);if(o&amp;&amp;&quot;meshgradient&quot;===o.nodeName){const i=parseFloat(r.style.strokeWidth.slice(0,-2))*(parseFloat(r.style.strokeMiterlimit)||parseFloat(r.getAttribute(&quot;stroke-miterlimit&quot;))||1),a=r.getBBox(),l=Math.trunc(a.width+i),c=Math.trunc(a.height+i),u=Math.trunc(a.x-i/2),f=Math.trunc(a.y-i/2);let p=document.createElementNS(s,&quot;canvas&quot;);d(p,{width:l,height:c});const y=p.getContext(&quot;2d&quot;);let g=y.createImageData(l,c);const w=new b(o);&quot;objectBoundingBox&quot;===o.getAttribute(&quot;gradientUnits&quot;)&amp;&amp;w.scale(new x(l,c));const m=o.getAttribute(&quot;gradientTransform&quot;);null!=m&amp;&amp;w.transform(h(m)),&quot;userSpaceOnUse&quot;===o.getAttribute(&quot;gradientUnits&quot;)&amp;&amp;w.transform(new x(-u,-f)),w.paintMesh(g.data,p.width),y.putImageData(g,0,0);const M=document.createElementNS(t,&quot;image&quot;);d(M,{width:l,height:c,x:0,y:0});let S=p.toDataURL();M.setAttributeNS(e,&quot;xlink:href&quot;,S);const k=&quot;pattern_clip&quot;+n,A=document.createElementNS(t,&quot;pattern&quot;);d(A,{id:k,patternUnits:&quot;userSpaceOnUse&quot;,width:l,height:c,x:u,y:f}),A.appendChild(M),o.parentNode.appendChild(A),r.style.stroke=&quot;url(#&quot;+k+&quot;)&quot;,g=null,p=null,S=null}}})}();
</script></svg>
